<svg xmlns="http://www.w3.org/2000/svg" width="216" height="299" viewBox="0 0 216 299"><g transform="translate(-428 -255)"><rect width="216" height="299" rx="10" transform="translate(428 255)" fill="#21242f"/><path d="M0,0H216a0,0,0,0,1,0,0V130a10,10,0,0,1-10,10H10A10,10,0,0,1,0,130V0A0,0,0,0,1,0,0Z" transform="translate(428 398)" fill="none"/><g transform="translate(478 300.457)"><g transform="translate(18.521 64.147)"><path d="M133.649,100.535H73.942a1.956,1.956,0,1,0,0,3.913h59.706a1.956,1.956,0,1,0,0-3.913Z" transform="translate(-71.986 -100.535)"/></g><g transform="translate(0 64.147)"><path d="M112.816,138.69a1.957,1.957,0,0,0-1.956,1.956v43.4a5.189,5.189,0,0,1-5.183,5.183H9.1a5.188,5.188,0,0,1-5.182-5.183V109.63A5.188,5.188,0,0,1,9.1,104.448h4.86a1.956,1.956,0,0,0,0-3.913H9.1a9.106,9.106,0,0,0-9.1,9.1v74.412a9.106,9.106,0,0,0,9.1,9.1h96.581a9.106,9.106,0,0,0,9.1-9.1v-43.4A1.957,1.957,0,0,0,112.816,138.69Z" transform="translate(0 -100.535)"/></g><g transform="translate(7.826 72.627)"><path d="M127.581,196.623a1.957,1.957,0,0,0-1.956,1.956v7.3h-91.3V137.409h66.807a1.956,1.956,0,1,0,0-3.913H32.372a1.957,1.957,0,0,0-1.956,1.956v72.384a1.957,1.957,0,0,0,1.956,1.956h95.208a1.957,1.957,0,0,0,1.956-1.956v-9.257A1.956,1.956,0,0,0,127.581,196.623Z" transform="translate(-30.416 -133.496)"/></g><g transform="translate(103.034 102.688)"><path d="M402.423,250.334a1.957,1.957,0,0,0-1.956,1.956v26.544a1.956,1.956,0,0,0,3.913,0V252.29A1.956,1.956,0,0,0,402.423,250.334Z" transform="translate(-400.467 -250.334)"/></g><g transform="translate(35.213 92.451)"><path d="M175.159,216.807a2.393,2.393,0,0,1-2.215-1.477l-.442-1.06a6.036,6.036,0,0,0-5.586-3.724H151.161a6.037,6.037,0,0,0-5.586,3.724l-.441,1.06a2.394,2.394,0,0,1-2.215,1.477,6.059,6.059,0,0,0-6.052,6.052v19.2a6.059,6.059,0,0,0,6.052,6.052h32.242a6.059,6.059,0,0,0,6.052-6.052v-19.2A6.059,6.059,0,0,0,175.159,216.807Zm2.4,25.25h0a2.4,2.4,0,0,1-2.4,2.4H142.918a2.4,2.4,0,0,1-2.4-2.4v-19.2a2.4,2.4,0,0,1,2.4-2.4,6.037,6.037,0,0,0,5.586-3.724l.441-1.059a2.394,2.394,0,0,1,2.215-1.477h15.756a2.393,2.393,0,0,1,2.215,1.477l.441,1.06a6.036,6.036,0,0,0,5.586,3.724,2.4,2.4,0,0,1,2.4,2.4v19.2Z" transform="translate(-136.866 -210.547)"/></g><g transform="translate(47.43 102.58)"><path d="M194.305,249.916a9.956,9.956,0,1,0,9.956,9.956A9.967,9.967,0,0,0,194.305,249.916Zm0,16.261a6.3,6.3,0,1,1,6.3-6.3A6.311,6.311,0,0,1,194.305,266.177Z" transform="translate(-184.349 -249.916)"/></g><g transform="translate(83.213 51.542)"><path d="M347.686,51.542A24.258,24.258,0,1,0,371.945,75.8,24.286,24.286,0,0,0,347.686,51.542Zm0,44.6A20.346,20.346,0,1,1,368.032,75.8,20.369,20.369,0,0,1,347.686,96.145Z" transform="translate(-323.428 -51.542)"/></g><g transform="translate(93.777 62.106)"><path d="M389.92,104.34h-9.781V94.558a1.956,1.956,0,1,0-3.913,0v9.781h-9.781a1.956,1.956,0,1,0,0,3.913h9.781v9.781a1.956,1.956,0,0,0,3.913,0v-9.781h9.781a1.956,1.956,0,1,0,0-3.913Z" transform="translate(-364.488 -92.602)"/></g></g></g></svg>