<svg xmlns="http://www.w3.org/2000/svg" width="216" height="299" viewBox="0 0 216 299"><g transform="translate(-428 -255)"><rect width="216" height="299" rx="10" transform="translate(428 255)" fill="#21242f"/><path d="M152.511,105.524a10.248,10.248,0,0,1-8.813-4.955,2.467,2.467,0,1,0-4.215,2.563,15.228,15.228,0,0,0,5.156,5.145l-2.564,11.6-6.158-7.1a2.47,2.47,0,1,0-3.592-3.387l-4.34,4.985-10.917-12.146a15.068,15.068,0,0,0,1.658-5.774,33.011,33.011,0,0,0,42.316-31.567c0-.84.013-18.854.014-20.079A17.256,17.256,0,0,0,143.8,27.529l-31.45-.022A17.256,17.256,0,0,0,95.071,44.762l-.011,16a5.082,5.082,0,0,1-2.772-4.519l.02-30.05a5.865,5.865,0,0,1,5.858-5.854,2.466,2.466,0,0,0,2.3-1.549,22.052,22.052,0,0,1,20.49-13.852l33.167.023-3.059,8.067a2.468,2.468,0,0,0,1.618,3.243l4.274,1.242a9.952,9.952,0,0,1,7.2,9.513l-.02,29.267a2.467,2.467,0,1,0,4.933,0c0-.182.02-29.2.02-29.383a14.912,14.912,0,0,0-10.753-14.138l-1.709-.5L160,3.366a2.468,2.468,0,0,0-2.3-3.341L120.955,0A26.985,26.985,0,0,0,96.5,15.529a10.809,10.809,0,0,0-9.124,10.656l-.02,30.05a10.046,10.046,0,0,0,7.725,9.758,33,33,0,0,0,18.765,28.6v.629a10.284,10.284,0,0,1-10.306,10.273,25.451,25.451,0,0,0-25.485,25.442l-.01,14.571a2.467,2.467,0,1,0,4.933,0l.01-14.571a20.514,20.514,0,0,1,20.526-20.512,15.4,15.4,0,0,0,3.238-.34l3.431,15.623a2.469,2.469,0,0,0,4.271,1.089l8.882-10.214,2.21,2.46-.01,14.778a2.467,2.467,0,0,0,4.933,0l.01-14.8,2.166-2.487,8.916,10.281a2.468,2.468,0,0,0,4.272-1.084l3.452-15.618a15.468,15.468,0,0,0,3.222.345A20.515,20.515,0,0,1,173.02,131l-.01,14.571a2.467,2.467,0,1,0,4.933,0l.01-14.571A25.445,25.445,0,0,0,152.511,105.524ZM99.991,64.758,100,44.766a12.347,12.347,0,0,1,12.333-12.325l31.458.022A12.325,12.325,0,0,1,156.121,44.8l-.014,20.111a28.058,28.058,0,0,1-56.116-.156Zm13.958,55.1L111.4,108.251a15.311,15.311,0,0,0,2.637-2.016l5.976,6.649Z" transform="translate(408.956 332.875)"/><path d="M0,0H216a0,0,0,0,1,0,0V130a10,10,0,0,1-10,10H10A10,10,0,0,1,0,130V0A0,0,0,0,1,0,0Z" transform="translate(428 398)" fill="none"/></g></svg>