<svg xmlns="http://www.w3.org/2000/svg" width="19.948" height="13.667" viewBox="0 0 19.948 13.667"><g transform="translate(0 -80.609)"><g transform="translate(0 80.609)"><path d="M18.2,80.609H1.753A1.755,1.755,0,0,0,0,82.362V92.523a1.755,1.755,0,0,0,1.753,1.753H18.2a1.755,1.755,0,0,0,1.753-1.753V82.362A1.755,1.755,0,0,0,18.2,80.609Zm-.229,1.169-.234.195L10.67,87.854a1.087,1.087,0,0,1-1.391,0L2.216,81.973l-.234-.195Zm-16.8.844,5.754,4.792-5.754,3.83ZM18.2,93.107H1.753a.585.585,0,0,1-.573-.468l6.68-4.446.67.558a2.256,2.256,0,0,0,2.887,0l.67-.558,6.68,4.446A.585.585,0,0,1,18.2,93.107Zm.584-1.864-5.754-3.83,5.754-4.792Z" transform="translate(0 -80.609)" fill="#ef398a"/></g></g></svg>