<svg xmlns="http://www.w3.org/2000/svg" width="19.506" height="23.38" viewBox="0 0 19.506 23.38"><path d="M92.663,11.262a5.449,5.449,0,0,0,3.982-1.65,5.449,5.449,0,0,0,1.65-3.981,5.449,5.449,0,0,0-1.65-3.981,5.63,5.63,0,0,0-7.963,0,5.449,5.449,0,0,0-1.65,3.981,5.449,5.449,0,0,0,1.65,3.982A5.451,5.451,0,0,0,92.663,11.262ZM89.65,2.618a4.26,4.26,0,0,1,6.025,0,4.071,4.071,0,0,1,1.248,3.013,4.071,4.071,0,0,1-1.248,3.013,4.259,4.259,0,0,1-6.025,0A4.07,4.07,0,0,1,88.4,5.631,4.071,4.071,0,0,1,89.65,2.618Zm0,0" transform="translate(-83.057)" fill="#de186c"/><path d="M19.459,254a13.908,13.908,0,0,0-.189-1.477,11.64,11.64,0,0,0-.363-1.485,7.338,7.338,0,0,0-.611-1.385,5.222,5.222,0,0,0-.921-1.2,4.06,4.06,0,0,0-1.323-.831,4.571,4.571,0,0,0-1.688-.306,1.714,1.714,0,0,0-.915.388c-.274.179-.6.386-.953.615a5.463,5.463,0,0,1-1.234.544,4.79,4.79,0,0,1-3.018,0,5.446,5.446,0,0,1-1.233-.543c-.355-.227-.676-.434-.954-.615a1.712,1.712,0,0,0-.915-.388,4.565,4.565,0,0,0-1.688.306,4.056,4.056,0,0,0-1.323.831,5.223,5.223,0,0,0-.92,1.2A7.351,7.351,0,0,0,.6,251.039a11.667,11.667,0,0,0-.363,1.485A13.814,13.814,0,0,0,.047,254c-.031.446-.047.911-.047,1.381a3.882,3.882,0,0,0,1.153,2.937A4.15,4.15,0,0,0,4.124,259.4H15.382a4.151,4.151,0,0,0,2.971-1.084,3.881,3.881,0,0,0,1.153-2.937C19.506,254.911,19.49,254.446,19.459,254Zm-2.051,3.326a2.794,2.794,0,0,1-2.027.706H4.124a2.8,2.8,0,0,1-2.027-.706,2.535,2.535,0,0,1-.728-1.945c0-.438.014-.871.043-1.286a12.46,12.46,0,0,1,.171-1.33,10.29,10.29,0,0,1,.319-1.309,5.984,5.984,0,0,1,.5-1.126,3.871,3.871,0,0,1,.677-.887,2.693,2.693,0,0,1,.88-.547,3.153,3.153,0,0,1,1.079-.208c.048.026.133.074.272.164.282.184.606.393.965.622a6.789,6.789,0,0,0,1.548.692,6.159,6.159,0,0,0,3.861,0,6.8,6.8,0,0,0,1.549-.692c.367-.235.683-.438.964-.622.138-.09.224-.139.272-.164a3.155,3.155,0,0,1,1.079.208,2.7,2.7,0,0,1,.88.547,3.861,3.861,0,0,1,.677.887,5.964,5.964,0,0,1,.5,1.126,10.266,10.266,0,0,1,.32,1.309,12.565,12.565,0,0,1,.171,1.331h0c.029.414.044.846.044,1.285A2.535,2.535,0,0,1,17.408,257.327Zm0,0" transform="translate(0 -236.023)" fill="#de186c"/></svg>