<svg xmlns="http://www.w3.org/2000/svg" width="72.073" height="71.001" viewBox="0 0 72.073 71.001"><g transform="translate(0 -3.81)"><g transform="translate(4.163 3.81)"><path d="M91.883,31.668a4.753,4.753,0,0,0-2.634-8.107L73.479,21.27a.95.95,0,0,1-.716-.52L65.71,6.46a4.753,4.753,0,0,0-8.524,0L50.133,20.75a.951.951,0,0,1-.716.52l-15.77,2.291a4.753,4.753,0,0,0-2.634,8.107L42.425,42.792a.951.951,0,0,1,.273.842L40,59.339a4.753,4.753,0,0,0,6.9,5.011l14.105-7.416a.95.95,0,0,1,.885,0L76,64.35a4.753,4.753,0,0,0,6.9-5.011L80.2,43.633a.951.951,0,0,1,.273-.842ZM76.451,44.276l2.694,15.707a.95.95,0,0,1-1.379,1L63.66,53.569a4.753,4.753,0,0,0-4.423,0L45.132,60.984a.95.95,0,0,1-1.379-1l2.694-15.706a4.752,4.752,0,0,0-1.367-4.207L33.668,28.946a.951.951,0,0,1,.527-1.622l15.77-2.292a4.752,4.752,0,0,0,3.579-2.6L60.6,8.142a.951.951,0,0,1,1.7,0h0l7.053,14.29a4.752,4.752,0,0,0,3.579,2.6L88.7,27.324a.951.951,0,0,1,.527,1.622L77.818,40.069A4.751,4.751,0,0,0,76.451,44.276Z" transform="translate(-29.574 -3.81)" fill="#de186c"/></g><g transform="translate(53.211 6.095)"><path d="M383.038,20.408a1.9,1.9,0,0,0-2.656.421l-2.018,2.778a1.9,1.9,0,0,0,3.076,2.235l2.018-2.778A1.9,1.9,0,0,0,383.038,20.408Z" transform="translate(-378.001 -20.045)" fill="#de186c"/></g><g transform="translate(13.034 6.084)"><g transform="translate(0 0)"><path d="M98.048,23.528,96.029,20.75a1.9,1.9,0,0,0-3.076,2.235l2.018,2.778a1.9,1.9,0,1,0,3.076-2.235Z" transform="translate(-92.59 -19.966)" fill="#de186c"/></g></g><g transform="translate(0 45.151)"><path d="M6.976,298.808a1.9,1.9,0,0,0-2.4-1.221l-3.265,1.061a1.9,1.9,0,1,0,1.175,3.616L5.755,301.2A1.9,1.9,0,0,0,6.976,298.808Z" transform="translate(0 -297.493)" fill="#de186c"/></g><g transform="translate(34.136 67.575)"><path d="M244.4,456.786a1.9,1.9,0,0,0-1.9,1.9v3.434a1.9,1.9,0,1,0,3.8,0v-3.434A1.9,1.9,0,0,0,244.4,456.786Z" transform="translate(-242.499 -456.786)" fill="#de186c"/></g><g transform="translate(65.004 45.154)"><path d="M467.538,298.668l-3.265-1.061a1.9,1.9,0,0,0-1.175,3.616l3.265,1.061a1.9,1.9,0,0,0,1.175-3.616Z" transform="translate(-461.783 -297.513)" fill="#de186c"/></g></g></svg>